<svg height="512" viewBox="0 0 56 61" width="512" xmlns="http://www.w3.org/2000/svg"><path id="Shape" d="m1 16.8c-.06887107.3294419.03259804.6714304.27.91 2.2939085 2.0639059 5.25481725 3.2319382 8.34 3.29 1.7271931-.0148806 3.4315048-.3966464 5-1.12 5 9.41-1.92 14.68-3.64 25-.0338097.2655689.0402764.5336054.2056749.7441126s.4082969.3459054.6743251.3758874c.11 0 10.92 1.79 12 11.31.1546259 1.5387039 1.4535658 2.7077497 3 2.7h4.24c1.5464342.0077497 2.8453741-1.1612961 3-2.7 1.12-9.49 11.61-11.24 12-11.31.2794921-.0214823.5371354-.159287.710153-.3798369.1730175-.2205498.245522-.5035929.199847-.7801631-1-6.09-3.07-8.27-5-15.11-.8208304-3.3453314-.3268887-6.8780883 1.38-9.87 1.5692744.7210478 3.2730858 1.1027015 5 1.12 3.0756703-.0573239 6.0283662-1.2178186 8.32-3.27.2482736-.2325605.3612925-.5753847.3-.91-2-10.17-9-12.53-9.64-12.74-11.36-4.52-9.86-3.97-10.36-4.06-1.56 0 5.68 0-16 0-.32 0 0-.07-10.36 4.06-.64.21-7.59 2.57-9.64 12.74zm39 13.47c1.84 6.46 3.8 8.93 4.8 14-3 .75-11.64 3.69-12.73 12.83-.0317798.5287239-.4703227.9409542-1 .94h-4.19c-.5296773.0009542-.9682202-.4112761-1-.94-1.08-9.18-9.74-12.1-12.72-12.87 1-5 2.93-7.41 4.8-14 2.12-7.42-3-13.65-3.25-14-3-3-2.89-8.76-2.77-10.59l8.18-3.27c.7169688 4.34649136 4.4747723 7.53521333 8.88 7.53521333s8.1630312-3.18872197 8.88-7.53521333l8.18 3.33c.13 1.83.25 7.58-2.83 10.66-.23.26-5.31 6.49-3.23 13.91zm14.9-13.63c-2.9463953 2.4201653-6.9966176 2.9949111-10.5 1.49.0952822-.1457674.1987829-.2859941.31-.42 3.16-3.16 3.47-8.41 3.39-11.12 1.9 1.09 5.39 3.83 6.8 10.05zm-18.97-14.64c-.4915497 3.44965822-3.4454967 6.01252848-6.93 6.01252848s-6.4384503-2.56287026-6.93-6.01252848zm-26 4.58c-.07 2.7.22 8 3.34 11.06l.37.49c-3.5111974 1.5453001-7.59473763.9680254-10.54-1.49 1.41-6.26 4.9-8.98 6.79-10.06z" transform="translate(-1)"/></svg>