<?xml version="1.0" encoding="iso-8859-1"?>
<!-- Generator: Adobe Illustrator 19.0.0, SVG Export Plug-In . SVG Version: 6.00 Build 0)  -->
<svg version="1.1" id="Capa_1" xmlns="http://www.w3.org/2000/svg" xmlns:xlink="http://www.w3.org/1999/xlink" x="0px" y="0px"
	 viewBox="0 0 512 512" style="enable-background:new 0 0 512 512;" xml:space="preserve">
<g>
	<g>
		<path d="M477.646,140.751h-44.448c3.004-7.625,10.427-13.043,19.106-13.043c3.438,0,6.703,0.817,9.705,2.431
			c3.646,1.962,8.195,0.592,10.156-3.057c1.961-3.649,0.593-8.195-3.057-10.156c-5.135-2.76-10.945-4.218-16.805-4.218
			c-11.388,0-21.534,5.389-28.044,13.744c-6.509-8.355-16.656-13.744-28.043-13.744c-11.387,0-21.534,5.389-28.043,13.744
			c-6.51-8.355-16.656-13.744-28.044-13.744s-21.534,5.389-28.043,13.744c-6.51-8.355-16.656-13.744-28.044-13.744
			c-11.387,0-21.534,5.389-28.043,13.744c-6.509-8.355-16.656-13.744-28.043-13.744c-11.388,0-21.534,5.389-28.044,13.744
			c-6.509-8.355-16.656-13.744-28.043-13.744c-11.387,0-21.534,5.389-28.044,13.744c-6.509-8.355-16.656-13.744-28.043-13.744
			c-11.387,0-21.534,5.389-28.043,13.744c-6.51-8.355-16.656-13.744-28.044-13.744c-17.516,0-32.103,12.739-35.007,29.437
			C10.438,146.331,0,159.518,0,175.107v29.562c0,11.576,5.475,22.184,14.145,29.031c0.13,0.122,191.628,155.156,191.628,155.156
			c7.727,6.598,17.738,10.436,28.383,10.436h43.688c17.372,0,27.087-9.373,27.09-9.375c0,0,192.807-156.107,192.942-156.234
			c8.658-6.849,14.124-17.449,14.124-29.015v-29.562C512,156.163,496.589,140.751,477.646,140.751z M396.217,127.708
			c8.679,0,16.101,5.418,19.105,13.043h-38.21C380.116,133.128,387.538,127.708,396.217,127.708z M340.13,127.708
			c8.679,0,16.102,5.418,19.106,13.043h-38.211C324.029,133.128,331.451,127.708,340.13,127.708z M284.043,127.708
			c8.679,0,16.102,5.418,19.106,13.043h-38.211C267.942,133.128,275.364,127.708,284.043,127.708z M227.957,127.708
			c8.679,0,16.101,5.418,19.105,13.043h-38.211C211.855,133.128,219.278,127.708,227.957,127.708z M171.87,127.708
			c8.679,0,16.101,5.418,19.105,13.043h-38.211C155.768,133.128,163.191,127.708,171.87,127.708z M115.783,127.708
			c8.679,0,16.101,5.418,19.105,13.043h-38.21C99.682,133.128,107.104,127.708,115.783,127.708z M59.696,127.708
			c8.679,0,16.102,5.418,19.106,13.043H40.591C43.595,133.128,51.018,127.708,59.696,127.708z M328.696,351.381
			c16.454-29.312,37.838-53.474,63.808-72.007c19.066-13.606,40.645-24.239,64.384-31.772L328.696,351.381z M496.999,204.667
			c0,10.311-7.296,19.334-17.349,21.456c-36.138,7.628-68.39,21.436-95.861,41.041c-34.496,24.618-61.389,58.398-79.932,100.402
			c-4.485,10.16-14.696,16.725-26.015,16.725h-43.686v0.001c-11.318,0-21.529-6.564-26.015-16.725
			c-14.495-32.836-34.188-60.788-58.532-83.08c-3.055-2.798-7.798-2.59-10.597,0.466c-2.797,3.056-2.589,7.8,0.466,10.597
			c17.119,15.677,31.804,34.389,43.838,55.829L55.136,247.617c21.055,6.685,40.433,15.806,57.827,27.275
			c3.459,2.28,8.11,1.325,10.39-2.134c2.28-3.458,1.325-8.109-2.134-10.39c-25.885-17.066-55.785-29.262-88.87-36.245
			C22.296,224.001,15,214.978,15,204.667v-29.562c0-10.672,8.683-19.354,19.354-19.354h443.291c10.672,0,19.354,8.683,19.354,19.354
			V204.667z"/>
	</g>
</g>
<g>
</g>
<g>
</g>
<g>
</g>
<g>
</g>
<g>
</g>
<g>
</g>
<g>
</g>
<g>
</g>
<g>
</g>
<g>
</g>
<g>
</g>
<g>
</g>
<g>
</g>
<g>
</g>
<g>
</g>
</svg>
