<?xml version="1.0"?>
<svg xmlns="http://www.w3.org/2000/svg" id="OutLine" viewBox="0 0 512 512" width="512" height="512"><path d="M134.6,479.876C138.288,480.534,225.379,496,256,496s117.712-15.466,121.4-16.124a8,8,0,0,0,6.544-8.784l-31.474-275.4C358.578,190.273,368,177.743,368,152c0-9.308-11.551-38.626-16-49.569V24a8,8,0,0,0-16,0V96H288a8,8,0,0,0-5.657,2.343L256,124.686,229.657,98.343A8,8,0,0,0,224,96H176V24a8,8,0,0,0-16,0v78.431c-4.449,10.943-16,40.261-16,49.569,0,20.9,10.537,36.346,15.649,42.611l-31.6,276.481A8,8,0,0,0,134.6,479.876ZM256,480c-24.221,0-89.188-10.8-111.195-14.587l1.767-15.464C174.274,454.661,232.186,464,256,464s81.726-9.339,109.428-14.051l1.767,15.464C345.19,469.2,280.227,480,256,480ZM173.4,112h47.29l29.656,29.657a8,8,0,0,0,11.314,0L291.313,112H338.6c6.743,16.914,13.354,35.757,13.4,40,0,21-7.41,29.417-10.476,32H171.66c-3.806-4.812-11.66-16.6-11.66-32C160.043,147.757,166.654,128.914,173.4,112Zm1.741,88H336.862l26.747,234.029C340.81,437.911,279.3,448,256,448s-84.81-10.089-107.609-13.971Z"/></svg>
