<svg height="512pt" viewBox="-96 0 512 512" width="512pt" xmlns="http://www.w3.org/2000/svg"><path d="m123.855469 210.160156-.007813.003906c-5.335937 1.421876-8.503906 6.898438-7.082031 12.234376 1.191406 4.476562 5.238281 7.425781 9.65625 7.425781.855469 0 1.722656-.109375 2.585937-.339844 5.335938-1.421875 8.507813-6.902344 7.085938-12.238281-1.425781-5.339844-6.902344-8.511719-12.238281-7.085938zm0 0"/><path d="m302.488281 381.835938c-1.976562-5.15625-7.769531-7.726563-12.917969-5.746094-5.15625 1.980468-7.730468 7.765625-5.75 12.917968 2.226563 5.792969 3.9375 10.601563 5.242188 14.738282-34.445312 12.9375-59.238281 36.53125-79.480469 55.796875-18.296875 17.414062-34.101562 32.457031-49.5625 32.457031-15.457031 0-31.261719-15.042969-49.5625-32.457031-20.238281-19.265625-45.03125-42.859375-79.472656-55.796875 2.898437-9.203125 7.296875-20.105469 11.886719-31.476563 9.171875-22.726562 19.566406-48.480469 23.992187-74.078125 3.574219-20.664062 2.753907-38.449218-2.535156-53.757812 6.710937.589844 13.742187.269531 20.984375-1 5.4375-.957032 9.074219-6.140625 8.117188-11.582032-.953126-5.4375-6.136719-9.074218-11.578126-8.117187-21.496093 3.777344-39.511718-3.378906-50.734374-20.140625-15.332032-22.90625-14.617188-58.238281 1.695312-84.035156 10.761719-16.582032 20.984375-25.769532 30.378906-27.308594 12.085938-1.972656 25.40625 8.589844 39.503906 19.777344 16.265626 12.90625 34.699219 27.539062 57.324219 27.539062s41.0625-14.632812 57.328125-27.539062c14.097656-11.1875 27.417969-21.761719 39.503906-19.777344 9.394532 1.539062 19.613282 10.722656 30.371094 27.300781 16.320313 25.800781 17.035156 61.136719 1.703125 84.039063-11.222656 16.761718-29.242187 23.917968-50.738281 20.140625-5.4375-.953125-10.621094 2.683593-11.578125 8.121093-.953125 5.441407 2.683594 10.625 8.121094 11.578126 7.246093 1.273437 14.273437 1.589843 20.992187 1-5.625 16.304687-6.195312 35.429687-1.785156 57.824218 1.066406 5.421875 6.328125 8.949219 11.742188 7.882813 5.417968-1.066407 8.945312-6.324219 7.878906-11.742188-5.175782-26.292969-2.394532-46.554687 8.503906-61.847656 9.191406-5.054687 17.160156-12.386719 23.480469-21.828125 19.859375-29.660156 19.261719-73.210938-1.449219-105.90625-.019531-.03125-.039062-.0625-.058594-.09375-5.660156-8.726562-11.355468-15.851562-17.132812-21.429688l-4.867188-77.914062c-.328125-5.269531-4.699218-9.375-9.980468-9.375h-34.015626c-5.21875 0-9.5625 4.015625-9.96875 9.214844l-5.828124 74.15625c-5.910157 3.9375-11.652344 8.488281-17.328126 12.992187-14.375 11.40625-29.242187 23.203125-44.894531 23.203125-15.652343 0-30.515625-11.796875-44.894531-23.203125-5.671875-4.503906-11.414062-9.054687-17.324219-12.992187l-5.828125-74.15625c-.410156-5.199219-4.75-9.214844-9.96875-9.214844h-34.015625c-5.28125 0-9.652343 4.105469-9.980469 9.378906l-4.867187 77.914063c-5.78125 5.578125-11.472656 12.703125-17.132813 21.429687-.023437.027344-.039062.058594-.058593.089844-20.714844 32.695312-21.308594 76.25-1.449219 105.90625 6.320312 9.441406 14.292969 16.777344 23.480469 21.832031 24.320312 34.136719 3.292969 86.238281-13.65625 128.234375-6.722657 16.65625-12.527344 31.042969-15.222657 43.25-1.125 5.101563 1.863282 10.207032 6.863282 11.726563 34.765625 10.542969 59.171875 33.773437 80.707031 54.269531 21.40625 20.375 39.894531 37.96875 63.347656 37.96875 23.457031 0 41.945313-17.597656 63.351563-37.96875 21.535156-20.496094 45.941406-43.722656 80.707031-54.269531 4.996094-1.515625 7.984375-6.625 6.859375-11.726563-1.507812-6.835937-4.113281-14.914062-8.449219-26.199218zm-55.203125-361.835938h15.375l3.371094 53.976562c-1.964844-.644531-3.949219-1.132812-5.949219-1.460937-5.914062-.96875-11.558593-.539063-16.996093.871094zm-189.902344 0h15.375l4.195313 53.390625c-5.433594-1.414063-11.078125-1.84375-16.996094-.875-1.996093.328125-3.980469.816406-5.945312 1.460937zm0 0"/><path d="m272.691406 334.371094c-5.078125 2.175781-7.429687 8.058594-5.253906 13.136718 1.625 3.789063 5.316406 6.0625 9.199219 6.0625 1.3125 0 2.648437-.261718 3.933593-.8125 5.074219-2.175781 7.429688-8.054687 5.25-13.128906v-.007812c-2.175781-5.078125-8.054687-7.425782-13.128906-5.25zm0 0"/></svg>